<svg width="800" height="800" viewBox="0 0 800 800" fill="none" xmlns="http://www.w3.org/2000/svg">
<path d="M217.456 368.468H328.323V479.336H217.456V368.468ZM628.122 432.349C601.054 404.385 556.308 403.658 528.366 430.725C514.825 443.833 507.2 461.427 506.898 480.266C506.678 493.69 510.348 506.53 517.129 517.74L494.231 539.907L474.14 519.151C468.053 512.863 458.015 512.709 451.743 518.779C445.456 524.866 445.293 534.896 451.372 541.176L471.47 561.939L456.466 576.463L423.918 542.846C417.84 536.558 407.809 536.411 401.521 542.49C395.242 548.568 395.08 558.598 401.165 564.886L433.705 598.495L424.196 607.699C417.908 613.786 417.746 623.816 423.824 630.096C425.3 631.624 427.069 632.839 429.025 633.668C430.981 634.497 433.084 634.923 435.208 634.922C439.318 634.926 443.269 633.328 446.22 630.467L467.112 610.244C467.116 610.24 467.12 610.24 467.124 610.236C467.128 610.232 467.128 610.228 467.132 610.224L504.873 573.692L504.879 573.688L504.884 573.681L539.163 540.499C550.15 547.642 562.862 551.729 576.291 551.949C576.677 551.957 577.072 551.957 577.466 551.957C595.872 551.957 613.242 544.928 626.497 532.098C640.039 518.99 647.663 501.396 647.965 482.557C648.275 463.716 641.23 445.883 628.122 432.349Z" fill="#74E8AE"/>
<path d="M724.281 518.934C724.281 461.78 699.791 410.36 660.928 374.189V323.514L698.242 354.937C701.093 357.343 704.704 358.661 708.434 358.657C710.744 358.659 713.027 358.155 715.122 357.182C717.217 356.208 719.073 354.787 720.56 353.019C726.19 346.329 725.332 336.338 718.642 330.7L438.225 94.556C420.384 79.5297 394.577 79.5913 376.844 94.6952L264.97 189.781V130.896C264.97 104.695 243.657 83.3813 217.456 83.3813C191.255 83.3813 169.941 104.695 169.941 130.896V270.554L80.495 346.592C73.8285 352.253 73.0166 362.252 78.6856 368.911C81.818 372.6 86.2719 374.494 90.7578 374.494C94.3846 374.494 98.0274 373.257 101.005 370.72L138.264 339.045V642.072C138.264 668.273 159.578 689.587 185.779 689.587H426.428C455.79 706.839 489.854 716.911 526.302 716.911C566.843 716.911 604.55 704.621 635.97 683.63C640.134 681.36 644.006 678.646 647.301 675.285C694.03 639.039 724.281 582.517 724.281 518.934ZM169.941 642.073V312.118L196.034 289.937C196.198 289.797 196.26 289.594 196.418 289.449C197.267 288.67 197.871 287.714 198.534 286.765C199.066 286.003 199.687 285.315 200.069 284.488C200.464 283.638 200.589 282.697 200.829 281.772C201.112 280.677 201.446 279.625 201.491 278.498C201.5 278.279 201.617 278.094 201.617 277.872V130.897C201.617 122.166 208.725 115.059 217.456 115.059C226.187 115.059 233.294 122.166 233.294 130.897V224.024C233.294 224.797 233.627 225.458 233.734 226.201C233.887 227.304 233.998 228.377 234.387 229.439C234.785 230.519 235.406 231.426 236.018 232.381C236.41 233.001 236.579 233.704 237.069 234.279C237.209 234.443 237.411 234.506 237.556 234.664C238.335 235.511 239.288 236.113 240.235 236.775C241.003 237.309 241.694 237.934 242.528 238.319C243.36 238.706 244.281 238.825 245.185 239.065C246.302 239.357 247.377 239.697 248.528 239.741C248.741 239.749 248.919 239.862 249.134 239.862C249.883 239.862 250.525 239.537 251.246 239.436C252.378 239.283 253.478 239.166 254.567 238.765C255.632 238.371 256.525 237.757 257.469 237.154C258.095 236.757 258.808 236.584 259.389 236.088L397.363 118.825C403.271 113.79 411.879 113.782 417.818 118.786L629.484 297.034C629.454 297.436 629.251 297.777 629.251 298.187V350.151C599.209 331.757 564.035 320.956 526.303 320.956C417.136 320.956 328.324 409.768 328.324 518.935C328.324 573.058 350.195 622.138 385.513 657.912H185.779C177.048 657.911 169.941 650.804 169.941 642.073ZM360 518.934C360 427.238 434.606 352.632 526.303 352.632C618 352.632 692.605 427.237 692.605 518.934C692.605 610.631 618 685.236 526.303 685.236C434.606 685.236 360 610.63 360 518.934Z" fill="#22C67F"/>
</svg>
