<svg width="28" height="30" viewBox="0 0 28 30" fill="none" xmlns="http://www.w3.org/2000/svg">
<path d="M13.787 0.916C14.219 0.933001 14.645 1.089 14.994 1.383L15.121 1.5L21.707 8.086V4.5H23.707V10.086L27.414 13.793L26 15.207L23.707 12.914V21.5H26.707V22.5C26.707 24.298 26.11 26 25.048 27.379L25.319 27.587C25.653 27.82 26.071 27.961 26.515 27.993L26.707 28V30L26.449 29.993C25.602 29.952 24.784 29.667 24.096 29.172L23.762 28.912C23.352 28.637 22.868 28.494 22.374 28.5C21.88 28.494 21.396 28.637 20.986 28.912L20.651 29.172C19.912 29.714 18.989 30 18.041 30C17.091 30 16.169 29.714 15.43 29.172L15.095 28.912C14.685 28.637 14.201 28.494 13.707 28.5C13.213 28.494 12.729 28.637 12.319 28.912L11.985 29.172C11.245 29.714 10.322 30 9.374 30C8.425 30 7.502 29.714 6.764 29.172L6.428 28.912C6.018 28.637 5.534 28.494 5.04 28.5C4.546 28.494 4.062 28.637 3.652 28.912L3.318 29.172C2.629 29.667 1.812 29.952 0.965 29.992L0.707 30V28L0.899 27.993C1.327 27.967 1.74 27.827 2.095 27.588L2.232 27.483L2.366 27.378C1.405 26.13 0.834 24.625 0.726 23.053L0.710999 22.758L0.69 21.5H3.707V12.914L1.414 15.207L0 13.793L12.293 1.5C12.663 1.13 13.142 0.935 13.626 0.916H13.788H13.787ZM24.623 23.5H2.79L2.797 23.54C2.995 24.67 3.513 25.719 4.291 26.562C4.539 26.52 4.79 26.5 5.041 26.5C5.989 26.5 6.912 26.786 7.651 27.329L7.986 27.588C8.367 27.853 8.858 28 9.374 28C9.889 28 10.38 27.853 10.762 27.587L11.096 27.328C11.837 26.786 12.759 26.5 13.707 26.5C14.656 26.5 15.579 26.786 16.318 27.328L16.653 27.588C17.033 27.853 17.525 28 18.041 28C18.556 28 19.047 27.853 19.428 27.587L19.763 27.328C20.503 26.786 21.425 26.5 22.373 26.5C22.626 26.5 22.878 26.52 23.123 26.56C23.879 25.741 24.391 24.727 24.6 23.632L24.622 23.5H24.623ZM13.707 2.915L5.707 10.915V21.5H9.707V17.5C9.707 16.995 9.897 16.509 10.24 16.139C10.584 15.769 11.054 15.543 11.557 15.505L11.707 15.5H15.707C16.212 15.5 16.697 15.69 17.068 16.033C17.437 16.377 17.664 16.847 17.702 17.35L17.707 17.5V21.5H21.707V10.914L13.707 2.915ZM15.707 17.5H11.707V21.5H15.707V17.5ZM13.707 7.5C14.503 7.5 15.266 7.816 15.828 8.379C16.391 8.941 16.707 9.704 16.707 10.5C16.707 11.296 16.391 12.059 15.828 12.621C15.266 13.184 14.503 13.5 13.707 13.5C12.911 13.5 12.148 13.184 11.586 12.621C11.023 12.059 10.707 11.296 10.707 10.5C10.707 9.704 11.023 8.941 11.586 8.379C12.148 7.816 12.911 7.5 13.707 7.5ZM13.707 9.5C13.442 9.5 13.187 9.605 13 9.793C12.812 9.98 12.707 10.235 12.707 10.5C12.707 10.765 12.812 11.02 13 11.207C13.187 11.395 13.442 11.5 13.707 11.5C13.972 11.5 14.227 11.395 14.414 11.207C14.602 11.02 14.707 10.765 14.707 10.5C14.707 10.235 14.602 9.98 14.414 9.793C14.227 9.605 13.972 9.5 13.707 9.5Z" fill="#3C3C3C"/>
</svg>
