<svg width="800" height="800" viewBox="0 0 800 800" fill="none" xmlns="http://www.w3.org/2000/svg">
<path d="M724.76 518.787C724.76 461.591 700.252 410.133 661.359 373.935V323.222L698.702 354.669C701.555 357.076 705.169 358.395 708.902 358.392C711.214 358.394 713.498 357.89 715.595 356.916C717.691 355.941 719.549 354.519 721.038 352.75C726.672 346.056 725.813 336.057 719.119 330.415L438.494 94.0973C420.647 79.0598 394.821 79.1222 377.067 94.2365L265.111 189.391V130.463C265.111 104.243 243.781 82.913 217.561 82.913C191.341 82.913 170.011 104.243 170.011 130.463V270.224L80.4989 346.318C73.8276 351.983 73.0149 361.99 78.6879 368.653C81.8219 372.345 86.2798 374.24 90.7689 374.24C94.3989 374.24 98.0441 373.002 101.024 370.464L138.312 338.766V642.017C138.312 668.237 159.641 689.567 185.861 689.567H426.688C456.072 706.832 490.16 716.912 526.635 716.912C567.206 716.912 604.941 704.612 636.385 683.606C640.551 681.334 644.427 678.617 647.723 675.254C694.487 638.981 724.76 582.417 724.76 518.787ZM170.011 642.018V311.819L196.124 289.62C196.288 289.481 196.35 289.278 196.507 289.132C197.358 288.352 197.962 287.395 198.625 286.446C199.157 285.683 199.779 284.996 200.161 284.167C200.557 283.317 200.682 282.375 200.923 281.45C201.205 280.354 201.541 279.301 201.585 278.174C201.593 277.954 201.711 277.769 201.711 277.548V130.464C201.711 121.726 208.823 114.613 217.561 114.613C226.299 114.613 233.411 121.725 233.411 130.464V223.66C233.411 224.432 233.744 225.095 233.851 225.839C234.005 226.942 234.115 228.016 234.506 229.078C234.903 230.16 235.524 231.068 236.137 232.023C236.529 232.643 236.699 233.347 237.189 233.922C237.329 234.086 237.531 234.149 237.676 234.306C238.456 235.155 239.41 235.757 240.357 236.419C241.125 236.954 241.817 237.58 242.652 237.965C243.485 238.352 244.407 238.472 245.31 238.711C246.428 239.003 247.504 239.343 248.656 239.387C248.869 239.395 249.047 239.508 249.262 239.508C250.011 239.508 250.653 239.182 251.376 239.082C252.508 238.929 253.61 238.812 254.699 238.411C255.765 238.017 256.658 237.402 257.603 236.799C258.23 236.401 258.943 236.228 259.524 235.732L397.6 118.382C403.513 113.343 412.127 113.336 418.071 118.343L629.895 296.723C629.865 297.125 629.662 297.467 629.662 297.877V349.88C599.598 331.472 564.398 320.663 526.638 320.663C417.391 320.663 328.513 409.54 328.513 518.788C328.513 572.951 350.401 622.067 385.744 657.868H185.861C177.123 657.868 170.011 650.755 170.011 642.018ZM360.211 518.787C360.211 427.023 434.871 352.363 526.635 352.363C618.399 352.363 693.06 427.023 693.06 518.787C693.06 610.551 618.399 685.212 526.635 685.212C434.871 685.212 360.211 610.551 360.211 518.787Z" fill="#22C67F"/>
<path d="M217.561 368.211H328.511V479.161H217.561V368.211ZM592.017 499.409H542.485V489.637L602.457 437.162C609.044 431.397 609.709 421.39 603.943 414.796C598.162 408.21 588.171 407.537 581.577 413.31L526.636 461.383L471.695 413.31C465.101 407.552 455.086 408.225 449.329 414.796C443.563 421.39 444.228 431.397 450.815 437.162L510.787 489.637V499.409H465.218C456.465 499.409 449.368 506.506 449.368 515.259C449.368 524.013 456.465 531.109 465.218 531.109H510.787V546.96H481.068C472.314 546.96 465.217 554.057 465.217 562.81C465.217 571.563 472.314 578.66 481.068 578.66H510.787V612.341C510.787 621.095 517.883 628.191 526.637 628.191C535.39 628.191 542.487 621.095 542.487 612.341V578.66H576.168C584.921 578.66 592.018 571.563 592.018 562.81C592.018 554.057 584.921 546.96 576.168 546.96H542.485V531.109H592.017C600.77 531.109 607.867 524.013 607.867 515.259C607.867 506.506 600.769 499.409 592.017 499.409Z" fill="#74E8AE"/>
</svg>
